<?xml version="1.0" encoding="UTF-8"?>
<svg version="1.1" xmlns="http://www.w3.org/2000/svg" width="512" height="512">
<path d="M0 0 C1.27017139 -0.00297112 2.54034278 -0.00594224 3.84900421 -0.0090034 C7.36345528 -0.01704065 10.8778859 -0.01886114 14.39234507 -0.01960087 C18.18735015 -0.02145717 21.98234476 -0.02900742 25.77734375 -0.03573608 C34.07099172 -0.04929699 42.36463484 -0.05534073 50.65829206 -0.05974674 C55.84135811 -0.06251316 61.02442231 -0.06675126 66.20748711 -0.07125092 C80.57048837 -0.08344103 94.93348816 -0.09374061 109.29649448 -0.09712601 C110.67443498 -0.09745536 110.67443498 -0.09745536 112.08021265 -0.09779136 C113.00098329 -0.09800964 113.92175393 -0.09822791 114.87042671 -0.09845281 C116.73612249 -0.09889627 118.60181826 -0.09934283 120.46751404 -0.09979248 C121.39295499 -0.10001391 122.31839594 -0.10023534 123.27188056 -0.10046348 C138.25787497 -0.10440913 153.24382069 -0.1218572 168.2297963 -0.145152 C183.63215646 -0.16889989 199.03449223 -0.18132943 214.43687099 -0.18249393 C223.07804355 -0.18340879 231.71915267 -0.18911353 240.36030769 -0.20731354 C247.72031095 -0.22276103 255.08023115 -0.22780771 262.44024754 -0.21957543 C266.19086171 -0.21568522 269.94130886 -0.21651815 273.69190216 -0.23063278 C277.77022483 -0.24583945 281.84817591 -0.23745709 285.92651367 -0.22705078 C287.67914555 -0.23913539 287.67914555 -0.23913539 289.46718413 -0.25146413 C306.05760724 -0.15300362 320.27750593 4.05396487 333.40769958 14.14044189 C334.03547302 14.60192627 334.66324646 15.06341064 335.31004333 15.53887939 C347.0497997 24.7496633 354.44100385 39.70262016 356.93505478 54.20741081 C357.47483246 58.69907637 357.55268446 63.07020031 357.54814148 67.58847046 C357.55259816 68.98638362 357.55259816 68.98638362 357.55714488 70.41253746 C357.56579373 73.52513589 357.5673369 76.63769569 357.5688324 79.75030518 C357.57346329 81.98637473 357.57848831 84.2224435 357.58387756 86.45851135 C357.59697785 92.5269577 357.60344195 98.59539299 357.60788822 104.66385126 C357.61082291 108.45858947 357.61492848 112.25332468 357.6193924 116.04806137 C357.63149662 126.57053276 357.64188009 137.09300238 357.64526749 147.61548042 C357.64548705 148.28804725 357.64570662 148.96061407 357.64593284 149.6535617 C357.64615112 150.32766712 357.64636939 151.00177254 357.64659429 151.69630539 C357.64703774 153.06212433 357.6474843 154.42794327 357.64793396 155.79376221 C357.64815539 156.47124444 357.64837682 157.14872668 357.64860496 157.84673868 C357.65254961 168.81447072 357.66999578 179.78213619 357.69329348 190.74984254 C357.71706215 202.03104178 357.72921436 213.31220887 357.7306354 224.59343708 C357.73168145 230.91901104 357.73754666 237.24449104 357.75545502 243.57004166 C357.77198425 249.52413258 357.77406762 255.47805939 357.76531601 261.43216515 C357.76454822 263.61011763 357.76885404 265.78807911 357.77877426 267.96600914 C357.87453958 290.3120139 354.55726486 308.32353921 338.40769958 325.14044189 C324.49701204 338.69198948 306.30421192 343.52817529 287.32685852 343.43275452 C286.02201508 343.41089584 284.71717163 343.38903717 283.37278748 343.36651611 C281.93843788 343.35420616 280.50407419 343.34345655 279.06970215 343.3341217 C276.01360565 343.31219333 272.95775369 343.28189539 269.90179634 343.24547958 C265.052908 343.19024714 260.20423436 343.16967144 255.35507202 343.15609741 C253.68449871 343.15103121 252.01392548 343.14594031 250.34335232 343.14082527 C249.50758785 343.1382894 248.67182338 343.13575352 247.81073272 343.1331408 C236.54768683 343.09636814 225.28549951 343.03197461 214.0231781 342.89727783 C206.38853751 342.80624327 198.75513514 342.76225277 191.11993784 342.77026951 C187.09525881 342.77256725 183.0738641 342.75174698 179.04989815 342.67245102 C158.55330879 341.68041093 158.55330879 341.68041093 140.76097107 350.37921143 C139.07967025 352.03218761 137.49251338 353.72257454 135.93870354 355.49547195 C133.36530941 358.26042627 130.35952342 360.4445623 127.34519958 362.70294189 C126.19625539 363.59775967 125.0488953 364.49461867 123.90379333 365.39434814 C123.33257751 365.84181396 122.76136169 366.28927979 122.1728363 366.75030518 C119.06918944 369.19458806 115.98908449 371.66819563 112.90769958 374.14044189 C108.11826402 377.98308557 103.30764366 381.79594016 98.47019958 385.57794189 C93.40254435 389.54243409 88.393171 393.57315802 83.40769958 397.64044189 C76.70062466 403.10988262 69.93668286 408.49769225 63.10447693 413.80987549 C61.36673603 415.1725644 59.64620174 416.55495629 57.92723083 417.94122314 C50.31346896 424.0320157 43.74165251 429.24765114 33.40769958 428.14044189 C27.41841055 426.7144207 22.44141054 423.82771614 18.40769958 419.14044189 C15.71983465 414.58792583 15.03862298 411.29658827 15.06712341 406.0335083 C15.06646629 405.00806915 15.06646629 405.00806915 15.0657959 403.96191406 C15.06787159 401.72164485 15.09114335 399.48214146 15.11473083 397.24200439 C15.12033116 395.68116667 15.1245992 394.12032365 15.12759399 392.55947876 C15.13900845 388.46587377 15.16844592 384.37259178 15.20170593 380.27911377 C15.23248046 376.0962155 15.24611506 371.91326467 15.26121521 367.73028564 C15.29331928 359.53352339 15.34447398 351.33702291 15.40769958 343.14044189 C14.29402512 343.14829712 14.29402512 343.14829712 13.15785217 343.15631104 C9.75416428 343.17725497 6.35049001 343.19015708 2.94676208 343.20294189 C1.77895203 343.2113208 0.61114197 343.21969971 -0.59205627 343.22833252 C-19.69752064 343.28209394 -36.5249294 338.86723703 -50.56227112 325.41973877 C-68.52331299 307.26884704 -71.0559635 287.25788906 -70.98048401 262.93536377 C-70.98455614 260.71958661 -70.98990161 258.50381149 -70.99641418 256.28804016 C-71.01001716 250.30666374 -71.00481822 244.32544365 -70.99527693 238.34406471 C-70.98764382 232.06325506 -70.99473604 225.78245816 -70.99943542 219.50164795 C-71.00523056 208.2832083 -70.99594931 197.06483265 -70.98065741 185.84640807 C-70.96725658 175.7017086 -70.9695854 165.55711216 -70.9834137 155.41241455 C-70.99951549 143.59452311 -71.00541922 131.77668146 -70.99657691 119.95877695 C-70.99191701 113.71656734 -70.99122902 107.47442848 -71.00118637 101.23222351 C-71.00989786 95.36173429 -71.00375803 89.49143828 -70.9865036 83.62096977 C-70.98256103 81.47569028 -70.98363422 79.33039432 -70.9902916 77.18512154 C-71.04628025 57.29907217 -69.05192928 40.35991472 -56.59230042 24.14044189 C-56.13081604 23.51266846 -55.66933167 22.88489502 -55.19386292 22.23809814 C-45.67762289 10.10901765 -29.92256948 2.43820805 -14.83359921 0.35201883 C-9.90465463 -0.11326987 -4.94638989 -0.00361979 0 0 Z M-21.96730042 51.51544189 C-22.65952698 52.33141846 -22.65952698 52.33141846 -23.36573792 53.16387939 C-26.75205885 58.62081695 -26.88102261 63.99158627 -26.85299683 70.19815063 C-26.85682237 71.10009773 -26.86064792 72.00204482 -26.86458939 72.93132365 C-26.87489338 75.94819219 -26.87093216 78.96486948 -26.86695862 81.98175049 C-26.87130654 84.14696936 -26.87648995 86.31218669 -26.88244629 88.47740173 C-26.89583917 94.35551263 -26.8964146 100.23355924 -26.89388299 106.11168242 C-26.89281344 111.01975797 -26.89769628 115.92782051 -26.90248841 120.83589327 C-26.91358469 132.41560948 -26.91402037 143.99529325 -26.90797424 155.57501221 C-26.901934 167.51857502 -26.91424655 179.46202004 -26.93554431 191.40556276 C-26.95316109 201.6622071 -26.95916153 211.91881394 -26.95590657 222.17547286 C-26.95409363 228.30024583 -26.95673101 234.42493479 -26.97062111 240.54969406 C-26.98319591 246.31006542 -26.98125848 252.07025319 -26.96821022 257.83062172 C-26.96584412 259.9429423 -26.96858032 262.05527578 -26.97683334 264.16758156 C-26.98729948 267.0548557 -26.97920096 269.94151369 -26.96652222 272.82876587 C-26.9738965 273.66126999 -26.98127079 274.49377412 -26.98886853 275.35150564 C-26.9305587 281.67932537 -25.89889465 287.3705986 -21.72511292 292.38262939 C-21.06253479 292.92145752 -20.39995667 293.46028564 -19.71730042 294.01544189 C-18.7311676 294.84688721 -18.7311676 294.84688721 -17.72511292 295.69512939 C-13.72646906 298.40483311 -10.19951378 299.38898162 -5.39405823 299.39581299 C-3.8765799 299.40625137 -3.8765799 299.40625137 -2.32844543 299.41690063 C-1.24504883 299.41590363 -0.16165222 299.41490662 0.95457458 299.41387939 C3.26707938 299.43417323 5.57957935 299.45502411 7.89207458 299.47637939 C11.52362653 299.49894171 15.1549871 299.51543751 18.78660583 299.52130127 C22.30127758 299.5308624 25.81509557 299.56468864 29.32957458 299.60137939 C30.94252411 299.59381119 30.94252411 299.59381119 32.58805847 299.58609009 C40.16994378 299.68426859 46.88127352 300.81205787 52.56394958 306.17559814 C53.00738708 306.84462158 53.45082458 307.51364502 53.90769958 308.20294189 C54.37176208 308.87454346 54.83582458 309.54614502 55.31394958 310.23809814 C57.13048342 313.39756949 57.54301957 316.04176127 57.61302185 319.61187744 C57.64293968 320.96293831 57.64293968 320.96293831 57.67346191 322.34129333 C57.69017441 323.31012955 57.7068869 324.27896576 57.72410583 325.27716064 C57.74488693 326.27173782 57.76566803 327.266315 57.78707886 328.29103088 C57.85249371 331.46993056 57.91142198 334.64891323 57.97019958 337.82794189 C58.01339246 339.98224737 58.057007 342.13654444 58.10105896 344.29083252 C58.20816685 349.57394778 58.30994831 354.85714569 58.40769958 360.14044189 C61.41528735 358.38963639 64.22185126 356.60793965 66.90379333 354.39044189 C67.53752869 353.87014404 68.17126404 353.34984619 68.82420349 352.81378174 C69.4911322 352.26157959 70.15806091 351.70937744 70.84519958 351.14044189 C72.27805417 349.96506107 73.71166137 348.79059717 75.14598083 347.61700439 C75.86221619 347.03080322 76.57845154 346.44460205 77.31639099 345.84063721 C80.36189799 343.36469619 83.44186857 340.93442964 86.53269958 338.51544189 C87.10319031 338.06862061 87.67368103 337.62179932 88.26145935 337.16143799 C90.54516846 335.37469347 92.83096246 333.59062642 95.11668396 331.80645752 C96.83966096 330.46068871 98.56152997 329.1135214 100.28269958 327.76544189 C101.13710632 327.09666016 101.13710632 327.09666016 102.0087738 326.41436768 C105.90396679 323.35362608 109.74854246 320.23576395 113.57884216 317.09429932 C134.57335402 299.88693604 134.57335402 299.88693604 144.97793579 299.89561462 C145.94768773 299.89221776 145.94768773 299.89221776 146.93703061 299.88875228 C149.09556762 299.88347059 151.25381566 299.89227585 153.41233826 299.90093994 C154.96333406 299.89982662 156.51432944 299.89776812 158.06532288 299.89483643 C161.40252212 299.89011771 164.73965098 299.89123081 168.07684898 299.89661217 C173.36022372 299.90422964 178.64346326 299.89355684 183.92681885 299.87940979 C198.94982922 299.84169489 213.97277874 299.82346434 228.99583435 299.83502197 C237.29528898 299.84124961 245.59452541 299.82959957 253.89392644 299.79857665 C259.13907207 299.7799745 264.38359715 299.78319133 269.62873209 299.80274427 C272.90270636 299.80965627 276.17634882 299.79560935 279.45026016 299.77579498 C280.96025152 299.77077383 282.47029983 299.77416465 283.98024559 299.78692818 C292.57962315 299.85440826 300.29708972 299.5551972 307.40769958 294.14044189 C312.54416007 287.87027174 313.5565971 282.3601925 313.55487061 274.36756897 C313.56038564 273.00624258 313.56038564 273.00624258 313.56601208 271.61741465 C313.57706186 268.56364268 313.58089497 265.50990471 313.58470154 262.45611572 C313.59096522 260.27163586 313.59761193 258.08715706 313.60461426 255.90267944 C313.62203291 249.95829835 313.63257842 244.0139253 313.64081979 238.069525 C313.64596819 234.35659218 313.652044 230.64366187 313.65833092 226.93073082 C313.67738555 215.31655133 313.69161602 203.70237821 313.69994289 192.08818609 C313.70091141 190.75135664 313.70188566 189.41452719 313.7028656 188.07769775 C313.70334934 187.41458565 313.70383308 186.75147354 313.70433148 186.06826713 C313.71262928 175.32967529 313.73796213 164.59119493 313.77044628 153.85265175 C313.80353677 142.82359371 313.8211976 131.79459518 313.8247239 120.76548785 C313.82707575 114.57467662 313.83605401 108.38404159 313.86118507 102.19327736 C313.88444975 96.3680806 313.8887053 90.54317625 313.87842369 84.7179451 C313.87792783 82.58142945 313.88426293 80.44489949 313.89797974 78.30842781 C313.91567859 75.38801265 313.90860201 72.46864912 313.89544678 69.54823303 C313.90641602 68.70590065 313.91738527 67.86356827 313.92868692 66.99571067 C313.85680783 60.37082757 312.02071555 55.16850066 307.66160583 50.11700439 C306.82435974 49.44798096 306.82435974 49.44798096 305.97019958 48.76544189 C305.41461365 48.30395752 304.85902771 47.84247314 304.28660583 47.36700439 C300.2916841 44.75909291 296.742583 43.8903551 292.00465679 43.88317299 C290.9267493 43.8767241 289.84884181 43.8702752 288.73827046 43.86363089 C287.55987955 43.86672809 286.38148864 43.8698253 285.16738892 43.87301636 C283.91102719 43.86848524 282.65466547 43.86395413 281.36023217 43.85928571 C277.87526266 43.84705238 274.39038911 43.84731656 270.90540302 43.84967446 C267.14591484 43.85008255 263.38645747 43.83904428 259.62698364 43.82955933 C252.26222671 43.81294647 244.89750179 43.80744965 237.53272768 43.80633457 C231.5460683 43.80538422 225.55941948 43.80127457 219.57276344 43.79493332 C202.59886538 43.77732002 185.62499261 43.76809457 168.65108534 43.76959427 C167.73601951 43.76967418 166.82095367 43.76975409 165.87815857 43.76983643 C164.50388353 43.76995907 164.50388353 43.76995907 163.10184536 43.77008419 C148.25391289 43.77089708 133.40608187 43.75175879 118.55817875 43.72355969 C103.31184728 43.69483243 88.06556528 43.68101931 72.81920606 43.68274724 C64.25977979 43.68341121 55.70045986 43.67791618 47.14105797 43.65639114 C39.8532744 43.6381814 32.56564539 43.63383025 25.27784892 43.64740999 C21.56035072 43.65394079 17.84314903 43.65405316 14.12567902 43.63670349 C10.09321526 43.61807749 6.06143823 43.63052425 2.02896118 43.64596558 C0.27141306 43.63053489 0.27141306 43.63053489 -1.52164108 43.61479247 C-9.57617899 43.68302518 -16.57690836 44.87871641 -21.96730042 51.51544189 Z " fill="#7B00FF" transform="translate(112.59230041503906,41.85955810546875)"/>
<path d="M0 0 C12.10981621 9.32295453 19.96601074 21.34631893 22.5 36.625 C22.60069593 39.00938412 22.64824764 41.39624019 22.66113281 43.78271484 C22.66858017 44.83495995 22.66858017 44.83495995 22.67617798 45.90846252 C22.69072338 48.21763101 22.69758825 50.52673083 22.703125 52.8359375 C22.70888204 54.44869995 22.7146397 56.0614624 22.72039795 57.67422485 C22.73088577 61.0517 22.73674316 64.4291515 22.74023438 67.80664062 C22.74571924 72.12292748 22.76975635 76.43889893 22.79820633 80.7550869 C22.81687736 84.0854889 22.82204064 87.41581551 22.82357025 90.74626541 C22.82658643 92.33699902 22.83457987 93.92773164 22.84775543 95.51841354 C22.86491267 97.74868209 22.86291279 99.97818737 22.85644531 102.20849609 C22.86191376 104.10781387 22.86191376 104.10781387 22.86749268 106.04550171 C22.16735009 112.86511838 19.16499902 117.73785817 14.5 122.625 C8.63199885 126.7755374 2.55240837 127.50276756 -4.5 126.625 C-10.5237672 124.68100566 -15.2703274 121.90571762 -18.60546875 116.4375 C-21.68546179 110.19681541 -21.5 105.81296971 -21.5 98.625 C-28.1 98.625 -34.7 98.625 -41.5 98.625 C-41.438125 100.295625 -41.37625 101.96625 -41.3125 103.6875 C-41.33308959 111.71743914 -44.06683417 116.93311199 -49.5 122.625 C-55.36800115 126.7755374 -61.44759163 127.50276756 -68.5 126.625 C-74.49681917 124.68970235 -79.03698898 121.92640616 -82.5625 116.6640625 C-84.92358435 111.52870404 -85.75082168 106.57394384 -85.75878906 100.9621582 C-85.76509338 99.68004959 -85.77139771 98.39794098 -85.77789307 97.07698059 C-85.77431089 95.69324607 -85.77020833 94.30951282 -85.765625 92.92578125 C-85.76697506 91.4847965 -85.76891842 90.04381219 -85.77142334 88.60282898 C-85.77436331 85.5877955 -85.77011659 82.57288092 -85.76074219 79.55786133 C-85.74939973 75.72643864 -85.75588104 71.89529785 -85.76788712 68.06388569 C-85.77518042 65.08755953 -85.77278302 62.11129803 -85.76763153 59.13496971 C-85.76631289 57.72422437 -85.76787883 56.31347284 -85.77259064 54.90273476 C-85.82165567 36.07240459 -82.6770112 20.06068364 -69.765625 5.6953125 C-51.4685471 -11.89803164 -20.87010801 -13.86125614 0 0 Z M-40.5 39.625 C-42.00156874 42.62813748 -41.59281204 45.41567522 -41.5625 48.75 C-41.541875 51.01875 -41.52125 53.2875 -41.5 55.625 C-34.9 55.625 -28.3 55.625 -21.5 55.625 C-21.4175 53.253125 -21.335 50.88125 -21.25 48.4375 C-21.19537598 47.33112183 -21.19537598 47.33112183 -21.13964844 46.20239258 C-21.08105039 42.70304975 -21.44101571 40.72379207 -23.2421875 37.70703125 C-26.28007134 34.90566086 -28.2305688 34.60582973 -32.2421875 34.34765625 C-36.17814184 34.83113853 -37.84209159 36.76774846 -40.5 39.625 Z " fill="#7600FF" transform="translate(255.5,158.375)"/>
<path d="M0 0 C5.15264764 3.43209572 7.67377251 7.48942766 9.234375 13.48828125 C9.51962092 16.8006873 9.51797021 20.09848165 9.5090332 23.42163086 C9.51414413 24.40612717 9.51925507 25.39062347 9.52452087 26.404953 C9.53838908 29.65023932 9.53746224 32.89531262 9.53515625 36.140625 C9.53904453 38.40214619 9.54337947 40.66366664 9.54814148 42.92518616 C9.55559761 47.66198089 9.55531665 52.39870107 9.55004883 57.13549805 C9.54425327 63.19938027 9.56119047 69.26295715 9.5843935 75.3267889 C9.59913912 79.99627968 9.60000143 84.66569705 9.59688377 89.33520699 C9.59739651 91.57067024 9.60262523 93.80613766 9.61269569 96.04157829 C9.62505936 99.16976538 9.61826861 102.29735921 9.60668945 105.42553711 C9.61815506 106.8043103 9.61815506 106.8043103 9.62985229 108.2109375 C9.56073409 116.67734703 7.08948937 122.35435191 1.234375 128.48828125 C-4.63362615 132.63881865 -10.71321663 133.36604881 -17.765625 132.48828125 C-23.76244417 130.5529836 -28.30261398 127.78968741 -31.828125 122.52734375 C-34.68989831 116.30298681 -35.05934233 110.58772923 -35.0402832 103.84033203 C-35.04539413 102.89791656 -35.05050507 101.9555011 -35.05577087 100.98452759 C-35.06961578 97.88415083 -35.06871387 94.78399766 -35.06640625 91.68359375 C-35.07029609 89.51797402 -35.07463136 87.35235505 -35.07939148 85.18673706 C-35.08684282 80.65262374 -35.08657035 76.11858831 -35.08129883 71.58447266 C-35.07550695 65.78873036 -35.09243389 59.99330792 -35.1156435 54.19761848 C-35.13041199 49.72620801 -35.13124827 45.254874 -35.12813377 40.78344345 C-35.12864546 38.64732098 -35.13385436 36.51119406 -35.14394569 34.37509537 C-35.15635255 31.38152845 -35.14949273 28.3885774 -35.13793945 25.39501953 C-35.14558319 24.52200195 -35.15322693 23.64898437 -35.16110229 22.74951172 C-35.10450703 16.07809551 -33.98999992 9.81076531 -30.22265625 4.18359375 C-21.15478716 -4.47503659 -11.09992425 -6.11874706 0 0 Z " fill="#9900FF" transform="translate(332.765625,152.51171875)"/>
</svg>
