<?xml version="1.0" encoding="UTF-8"?>
<svg version="1.1" xmlns="http://www.w3.org/2000/svg" width="512" height="512">
<path d="M0 0 C1.6326379 -0.00302325 3.26527439 -0.0069136 4.89790839 -0.01159257 C9.36945465 -0.02185898 13.84092061 -0.0196942 18.31247342 -0.01541197 C23.14081949 -0.01294228 27.96914634 -0.02196197 32.79748535 -0.02944946 C42.2512127 -0.04219189 51.70491165 -0.0439907 61.15864614 -0.0416492 C68.84425901 -0.0398653 76.52986325 -0.04161722 84.21547508 -0.04587364 C85.85701353 -0.04676643 85.85701353 -0.04676643 87.53171438 -0.04767724 C89.7550038 -0.04888901 91.97829322 -0.05010315 94.20158263 -0.05131962 C115.0469843 -0.06219349 135.89236979 -0.06003344 156.73777237 -0.05393478 C175.79890034 -0.04876627 194.85997719 -0.0600196 213.92109505 -0.07903299 C233.50229764 -0.09841513 253.08347605 -0.1066667 272.66468829 -0.10290974 C283.6543122 -0.10099821 294.64389261 -0.10348063 305.63350868 -0.11762428 C314.98956456 -0.12954385 324.34555017 -0.1309365 333.70160703 -0.11883412 C338.47270468 -0.11294939 343.24367382 -0.11183478 348.01476288 -0.12383652 C352.38766324 -0.13470852 356.76032801 -0.13157631 361.13321742 -0.11757483 C362.70986738 -0.11493153 364.28653588 -0.11728287 365.86316762 -0.1253107 C381.70807761 -0.20034929 396.32256513 2.38920766 408.34757996 13.52241516 C422.39878627 28.62576494 422.71373343 44.15438828 422.6183908 63.75827694 C422.60698647 67.23213445 422.62458453 70.70587018 422.63829041 74.17970276 C422.66043145 80.96893869 422.6557627 87.75789701 422.6412272 94.54714346 C422.62989875 100.0687699 422.62841958 105.59031898 422.63384628 111.11195374 C422.63461245 111.90019228 422.63537861 112.68843083 422.636168 113.5005554 C422.63776675 115.10224297 422.63938782 116.70393052 422.64103095 118.30561805 C422.65526169 133.29678356 422.63893787 148.28779578 422.61202912 163.27893615 C422.58969274 176.11993816 422.59357363 188.9607141 422.61662292 201.80171204 C422.64342837 216.74212421 422.65388864 231.68240229 422.63856161 246.62283516 C422.63696899 248.21836978 422.63539714 249.81390442 422.63384628 251.40943909 C422.63307491 252.19431053 422.63230353 252.97918196 422.63150878 253.78783739 C422.62720598 259.2977646 422.63444755 264.80760619 422.64624405 270.31752014 C422.66032048 277.03959178 422.65636188 283.76137179 422.62984033 290.48341036 C422.61677062 293.90797489 422.6114309 297.33205461 422.62808609 300.75661469 C422.72546535 327.14123354 422.72546535 327.14123354 416.96476746 337.26069641 C416.33054871 338.39249329 415.69632996 339.52429016 415.04289246 340.69038391 C405.7909937 353.06578695 395.04945347 359.40772995 379.96476746 362.26069641 C375.616796 362.6368692 371.30627837 362.64238405 366.94425964 362.60127258 C365.70380386 362.60171066 364.46334808 362.60214874 363.18530273 362.6026001 C359.82432629 362.60088336 356.46392102 362.58596737 353.10304546 362.56487823 C349.57570814 362.54596639 346.04836104 362.54434967 342.52098083 362.540802 C335.85956518 362.53152372 329.19829942 362.50696791 322.5369494 362.47675353 C314.94554296 362.44307718 307.35412891 362.42669044 299.76266623 362.41166723 C284.16328021 362.3804139 268.56404325 362.3277367 252.96476746 362.26069641 C252.50831093 363.19808151 252.50831093 363.19808151 252.04263306 364.15440369 C250.97395212 366.24274835 249.80576534 367.85654795 248.31242371 369.65913391 C247.78906433 370.29593079 247.26570496 370.93272766 246.72648621 371.58882141 C245.88537292 372.60202454 245.88537292 372.60202454 245.02726746 373.63569641 C243.84012253 375.08023116 242.65394004 376.52555734 241.46867371 377.97163391 C240.87586609 378.69447571 240.28305847 379.4173175 239.67228699 380.1620636 C237.22977135 383.16404592 234.84357778 386.20815473 232.46476746 389.26069641 C227.91618407 395.08616321 223.2804567 400.8366285 218.60295105 406.55903625 C215.54825224 410.29785554 212.55052886 414.07164013 209.58976746 417.88569641 C203.53236152 425.44158013 196.93186118 431.10173203 186.96476746 432.26069641 C177.15414476 432.98154862 168.61969364 431.36577573 160.88273621 425.03413391 C154.67053726 419.29006401 149.56476569 412.56508852 144.38346863 405.90718079 C140.80400681 401.30807026 137.1516463 396.77402925 133.46476746 392.26069641 C128.79568445 386.54126026 124.18946657 380.7783054 119.65422058 374.95210266 C117.54227434 372.24380343 115.39323696 369.58860905 113.15226746 366.98725891 C110.96476746 364.26069641 110.96476746 364.26069641 110.96476746 362.26069641 C110.32130497 362.26346179 109.67784248 362.26622717 109.01488113 362.26907635 C93.31336702 362.3355076 77.6119022 362.38506002 61.91028214 362.41613293 C54.31690148 362.43156133 46.72361499 362.45257319 39.1302948 362.48701477 C32.50720075 362.51704114 25.88417494 362.53630063 19.2610147 362.5429619 C15.7583939 362.5468519 12.25596822 362.55590839 8.75341034 362.57788658 C4.83066317 362.60229872 0.90810192 362.60265797 -3.01472473 362.60127258 C-4.73132545 362.61745132 -4.73132545 362.61745132 -6.48260498 362.63395691 C-21.12351351 362.57831286 -34.34164288 358.41199415 -45.19148254 348.29585266 C-54.6259648 337.88194323 -58.65641883 326.02343617 -58.54989624 312.16770935 C-58.55684177 310.99958706 -58.5637873 309.83146477 -58.5709433 308.62794483 C-58.58597312 305.41684413 -58.58331651 302.2063469 -58.57279027 298.99524713 C-58.56575664 295.52000026 -58.58182759 292.04484512 -58.5947876 288.56962585 C-58.61636426 281.77347221 -58.61631695 274.97748643 -58.60816205 268.18130983 C-58.6018467 262.65392134 -58.60301312 257.12658158 -58.60943413 251.59919357 C-58.61033578 250.81068405 -58.61123744 250.02217452 -58.61216642 249.20977076 C-58.61401774 247.60760013 -58.6158803 246.00542951 -58.61775398 244.4032589 C-58.63431064 229.39877541 -58.62563172 214.39438611 -58.6087684 199.3899083 C-58.59407624 185.68380484 -58.60869674 171.97792069 -58.63753856 158.27184547 C-58.66698118 144.17450587 -58.6778905 130.07726732 -58.66835636 115.97989833 C-58.66733388 114.38320917 -58.66633927 112.78651998 -58.66537285 111.18983078 C-58.66489646 110.40436937 -58.66442007 109.61890795 -58.66392924 108.80964468 C-58.66177137 103.29472495 -58.67153576 97.77990158 -58.68614388 92.2650032 C-58.70372147 85.53557507 -58.70347266 78.80642628 -58.68079222 72.07700886 C-58.66969835 68.64839973 -58.66637547 65.22028175 -58.68509293 61.79169464 C-58.79844764 35.37498909 -58.79844764 35.37498909 -53.03523254 25.26069641 C-52.08390442 23.5630011 -52.08390442 23.5630011 -51.11335754 21.83100891 C-37.86548009 4.11055744 -21.25969076 -0.05582802 0 0 Z M-23.47273254 40.13569641 C-26.61833009 46.4268915 -26.17955392 53.07111804 -26.16894531 59.95085144 C-26.17121087 61.02839129 -26.17347643 62.10593113 -26.17581064 63.2161237 C-26.18214133 66.82718357 -26.18132186 70.43820582 -26.18049622 74.04927063 C-26.18348826 76.63812814 -26.1868909 79.2269852 -26.19067383 81.81584167 C-26.19897134 88.1183233 -26.20172825 94.42079557 -26.20228621 100.7232822 C-26.20276175 105.84702332 -26.20481843 110.97076135 -26.20798683 116.0945015 C-26.21679062 130.62763636 -26.22140659 145.16076385 -26.22065636 159.6939014 C-26.2206164 160.47697403 -26.22057645 161.26004666 -26.22053528 162.06684875 C-26.2204944 162.85087956 -26.22045352 163.63491037 -26.2204114 164.44269969 C-26.22000491 177.15011746 -26.22957582 189.8575056 -26.24367364 202.56491481 C-26.25804165 215.61904875 -26.26494361 228.67316825 -26.26407987 241.7273103 C-26.26374807 249.05372756 -26.26648788 256.38011376 -26.27725792 263.7065239 C-26.2873213 270.59624179 -26.28702323 277.48589304 -26.27974129 284.37561417 C-26.27869454 286.90397487 -26.28106364 289.43233965 -26.28710175 291.96069336 C-26.2948117 295.41273102 -26.29018325 298.86454138 -26.2824707 302.3165741 C-26.28761427 303.316389 -26.29275783 304.3162039 -26.29805726 305.34631622 C-26.26460323 312.12503777 -26.17817208 318.58202199 -21.78523254 324.07319641 C-14.68142925 329.72394903 -8.77596547 329.68438315 0.01921082 329.6295929 C2.03945524 329.63537445 4.05969965 329.6411587 6.07994378 329.6470443 C8.24395043 329.65052173 10.40783602 329.64668336 12.57183647 329.64082146 C17.08999683 329.62920724 21.6079021 329.641427 26.1260376 329.65744019 C37.34714738 329.69358081 48.56825073 329.69986558 59.78941345 329.69734192 C68.51359426 329.69562929 77.23756578 329.70278946 85.9616881 329.73732048 C90.44911527 329.75408169 94.9360312 329.75234864 99.42345607 329.73649776 C102.87602746 329.72932244 106.32838292 329.74794729 109.78092957 329.7624054 C111.0180368 329.7526619 112.25514404 329.7429184 113.52973938 329.73287964 C121.2468219 329.79741344 126.01146544 330.55327828 131.77824402 335.96138 C132.216203 336.52163879 132.65416199 337.08189758 133.10539246 337.65913391 C133.8662616 338.61432922 133.8662616 338.61432922 134.64250183 339.58882141 C135.16134949 340.26429016 135.68019714 340.93975891 136.21476746 341.63569641 C136.77486511 342.34468079 137.33496277 343.05366516 137.91203308 343.78413391 C139.60740053 345.93454335 141.28701199 348.09653284 142.96476746 350.26069641 C143.90639678 351.46206375 144.84903878 352.66263834 145.79289246 353.86225891 C147.13187614 355.5645629 148.47003962 357.26743894 149.80412292 358.97358704 C156.01506194 366.90891711 162.41310655 374.69458195 168.79191589 382.49507141 C170.01382157 383.98944208 171.23502877 385.48438419 172.45549011 386.97993469 C173.60714046 388.39112989 174.76039985 389.80101389 175.91545105 391.20942688 C179.85208923 396.03533995 179.85208923 396.03533995 180.96476746 398.26069641 C181.62476746 398.26069641 182.28476746 398.26069641 182.96476746 398.26069641 C184.62780667 396.3174043 186.17725581 394.36302011 187.71476746 392.32319641 C192.02769221 386.71175668 196.44345029 381.20560364 200.96476746 375.76069641 C205.21975933 370.62383198 209.42492238 365.45786482 213.52726746 360.19819641 C217.58816302 354.99616651 221.69192352 349.83124858 225.83976746 344.69819641 C226.37545349 344.031026 226.91113953 343.36385559 227.46305847 342.6764679 C235.87999641 332.29491762 235.87999641 332.29491762 240.96476746 330.26069641 C243.55857468 330.01015663 243.55857468 330.01015663 246.55503845 330.00914001 C248.26243195 330.00106575 248.26243195 330.00106575 250.00431824 329.99282837 C251.24906921 329.99695236 252.49382019 330.00107635 253.77629089 330.00532532 C255.79369004 329.99976772 257.81108919 329.9942058 259.82848787 329.98848128 C261.99560981 329.98414256 264.16268593 329.9846108 266.3298111 329.98630142 C270.85225806 329.98913732 275.37454913 329.97477126 279.8969574 329.95732117 C292.75645093 329.91032376 305.61593405 329.88636214 318.47550964 329.87983704 C325.57917669 329.87608042 332.68266744 329.85800162 339.78625894 329.82474267 C344.27672399 329.80457674 348.76673286 329.80213481 353.25722456 329.81302285 C356.05908776 329.81563987 358.86068837 329.80157767 361.66248322 329.78294182 C363.56934838 329.77512831 365.47626288 329.78702019 367.38310242 329.79962158 C374.37633121 329.73256633 379.04658183 329.08972976 384.96476746 325.26069641 C390.71321292 318.48047868 390.11148779 311.00601239 390.09848022 302.57054138 C390.10074578 301.49300154 390.10301134 300.41546169 390.10534555 299.30526912 C390.11167624 295.69420925 390.11085678 292.083187 390.11003113 288.47212219 C390.11302318 285.88326468 390.11642581 283.29440762 390.12020874 280.70555115 C390.12850625 274.40306952 390.13126317 268.10059725 390.13182112 261.79811062 C390.13229667 256.6743695 390.13435335 251.55063147 390.13752174 246.42689133 C390.14632554 231.89375646 390.1509415 217.36062897 390.15019127 202.82749142 C390.15015131 202.04441879 390.15011136 201.26134617 390.15007019 200.45454407 C390.15002931 199.67051326 390.14998843 198.88648245 390.14994631 198.07869314 C390.14953982 185.37127536 390.15911074 172.66388722 390.17320856 159.95647801 C390.18757656 146.90234407 390.19447852 133.84822457 390.19361478 120.79408252 C390.19328298 113.46766526 390.19602279 106.14127906 390.20679283 98.81486893 C390.21685621 91.92515104 390.21655814 85.03549978 390.2092762 78.14577866 C390.20822945 75.61741795 390.21059856 73.08905317 390.21663666 70.56069946 C390.22434662 67.1086618 390.21971816 63.65685145 390.21200562 60.20481873 C390.21972096 58.70509638 390.21972096 58.70509638 390.22759217 57.1750766 C390.19413814 50.39635505 390.10770699 43.93937083 385.71476746 38.44819641 C380.65250771 34.42139889 376.62757748 32.88603107 370.15805244 32.88037968 C369.49506041 32.87571976 368.83206838 32.87105984 368.14898568 32.86625871 C365.92950948 32.85431689 363.71064637 32.86370056 361.49116516 32.87301636 C359.88301244 32.86884307 358.27486267 32.86336557 356.66671836 32.85669655 C352.24904696 32.84222246 347.8315618 32.84649279 343.41388011 32.85386336 C338.64894396 32.85858789 333.88404853 32.84609148 329.11912537 32.83584595 C319.78462972 32.81863834 310.45020133 32.81782204 301.11569394 32.82305885 C293.52913218 32.82709828 285.94259032 32.82565969 278.35602951 32.82031059 C277.27676135 32.81956217 276.19749319 32.81881375 275.08551993 32.81804265 C272.89306498 32.81651119 270.70061003 32.81497284 268.50815509 32.81342768 C247.94138552 32.79969544 227.37465398 32.80514532 206.80788527 32.81661289 C187.9895749 32.82654513 169.17136286 32.81360603 150.35306765 32.7896787 C131.03413683 32.76529975 111.71525182 32.75567692 92.39630592 32.76233143 C81.54871695 32.76582644 70.7012036 32.76357302 59.85362625 32.7460804 C50.61886726 32.73137345 41.38423714 32.73070321 32.14948072 32.74815131 C27.4375972 32.75667626 22.72594405 32.75877442 18.01407242 32.74349976 C13.69978944 32.72968711 9.38593493 32.73437159 5.07167695 32.75373899 C3.51183322 32.75750986 1.95195545 32.75454576 0.39214195 32.74412734 C-12.96963977 32.56790131 -12.96963977 32.56790131 -23.47273254 40.13569641 Z " fill="#6520BA" transform="translate(74.03523254394531,39.73930358886719)"/>
<path d="M0 0 C7.82499227 4.69268525 10.21139143 14.09896623 13.0625 22.25 C19.63365616 40.28662495 27.49540147 53.68140335 45.34814453 62.45117188 C51.20878342 65.07873446 57.27908882 67.22888766 63.33618164 69.35546875 C77.4206223 74.34944852 77.4206223 74.34944852 80.9921875 81.3125 C82.82562895 87.08063039 82.89011303 93.96712486 80.125 99.4375 C73.62622191 107.60263145 64.77167899 109.8119984 55.19921875 112.9296875 C39.02799528 118.43144032 25.78181479 128.15863069 18.12890625 143.65625 C15.90570644 148.6916532 13.91964445 153.75410266 12.15625 158.96484375 C11.77158569 160.09587524 11.77158569 160.09587524 11.37915039 161.24975586 C10.89036889 162.70818873 10.41472533 164.17111707 9.95483398 165.63891602 C7.97841983 171.61516509 5.26964139 175.87212826 -0.1875 179.3125 C-6.51532273 181.71707264 -10.98074868 181.8172747 -17.23828125 179.4375 C-24.25595065 176.26567202 -26.72290786 170.69364761 -29.33276367 163.80834961 C-30.02831688 161.8478825 -30.71914317 159.88573329 -31.40576172 157.92211914 C-37.65884953 140.15202109 -45.45644112 126.66313365 -62.625 117.4375 C-69.38448816 114.23141866 -76.47858145 111.83738495 -83.5715332 109.47827148 C-90.27760517 107.17144906 -94.90852067 104.78543842 -99.1875 98.9375 C-101.10179404 93.0882682 -101.46150249 87.0340531 -99.5390625 81.12109375 C-94.8344375 72.32911723 -84.63009455 70.22477261 -75.875 67.0625 C-59.24690173 61.04225919 -45.61710047 52.79463273 -37.3125 36.5 C-34.83838047 30.8957444 -32.68051755 25.18838578 -30.55078125 19.44628906 C-29.7944964 17.41833236 -29.02255657 15.39680231 -28.25 13.375 C-27.80527344 12.17617187 -27.36054688 10.97734375 -26.90234375 9.7421875 C-21.71686456 -0.83262265 -10.70541194 -4.55334156 0 0 Z M-10.3125 56.5 C-11.81975864 58.41296564 -11.81975864 58.41296564 -13.375 60.875 C-21.08501632 72.18409032 -30.43989656 81.64799216 -42.3125 88.5 C-41.09413007 92.15510978 -40.04981732 92.57449396 -36.875 94.625 C-25.62034042 102.30446145 -17.80814609 111.25653087 -10.3125 122.5 C-6.79882292 121.32877431 -6.62366222 120.752119 -4.8125 117.6875 C1.62567591 107.74619897 9.43480568 100.13466174 19.26757812 93.62133789 C20.76924484 92.62225868 22.23268812 91.56615411 23.6875 90.5 C23.6875 89.84 23.6875 89.18 23.6875 88.5 C21.7913778 87.12840127 19.84271151 85.82925724 17.875 84.5625 C7.5373492 77.63532503 -0.25571666 69.37045425 -6.75390625 58.73828125 C-7.26824219 57.99964844 -7.78257812 57.26101562 -8.3125 56.5 C-8.9725 56.5 -9.6325 56.5 -10.3125 56.5 Z " fill="#F98A16" transform="translate(242.3125,149.5)"/>
<path d="M0 0 C4.87339396 1.49185529 7.31459381 4.74990134 10.0625 8.9375 C10.82412845 10.79955025 11.55295751 12.675322 12.25 14.5625 C14.74697607 20.57681113 18.29558594 22.11495544 24.1015625 24.609375 C27.91666492 26.32063466 31.63068321 28.45246678 34.0625 31.9375 C34.4765625 34.37109375 34.4765625 34.37109375 34.0625 36.9375 C30.29595762 41.74120623 25.47310771 44.91087956 19.875 47.1875 C14.28086703 49.72557885 12.87533137 53.52643199 10.4921875 58.97265625 C8.55825179 62.98319506 6.01823587 66.72468015 2.0625 68.9375 C-0.97007153 68.80440909 -2.47947089 68.31934963 -4.81640625 66.37109375 C-13.9375 55.55698956 -13.9375 55.55698956 -13.9375 48.9375 C-14.659375 48.82921875 -15.38125 48.7209375 -16.125 48.609375 C-22.71569381 47.03493148 -29.94076259 42.45024126 -33.9375 36.9375 C-33.848974 33.07880807 -33.4546627 31.44839949 -30.6796875 28.70703125 C-29.26042969 27.73830078 -29.26042969 27.73830078 -27.8125 26.75 C-26.81605469 26.06035156 -25.81960938 25.37070313 -24.79296875 24.66015625 C-22.47033417 23.25894989 -20.68639553 22.41850502 -18.125 21.6875 C-13.55406936 19.17796945 -12.52340248 15.60469799 -10.40234375 10.96875 C-7.96209684 5.91906573 -5.49641667 1.75417553 0 0 Z " fill="#F98A16" transform="translate(319.9375,127.0625)"/>
</svg>
